<?xml version="1.0" encoding="UTF-8" standalone="no"?>
<svg
   xmlns:dc="http://purl.org/dc/elements/1.1/"
   xmlns:cc="http://creativecommons.org/ns#"
   xmlns:rdf="http://www.w3.org/1999/02/22-rdf-syntax-ns#"
   xmlns:svg="http://www.w3.org/2000/svg"
   xmlns="http://www.w3.org/2000/svg"
   xmlns:sodipodi="http://sodipodi.sourceforge.net/DTD/sodipodi-0.dtd"
   xmlns:inkscape="http://www.inkscape.org/namespaces/inkscape"
   viewBox="0 0 1658.4424 512.16614"
   height="512.16614pt"
   width="1658.4424pt"
   version="1.1"
   id="svg2"
   inkscape:version="0.91 r13725"
   sodipodi:docname="unless_logo_medium (1).svg">
  <metadata
     id="metadata32">
    <rdf:RDF>
      <cc:Work
         rdf:about="">
        <dc:format>image/svg+xml</dc:format>
        <dc:type
           rdf:resource="http://purl.org/dc/dcmitype/StillImage" />
        <dc:title></dc:title>
      </cc:Work>
    </rdf:RDF>
  </metadata>
  <defs
     id="defs30" />
  <sodipodi:namedview
     pagecolor="#ffffff"
     bordercolor="#666666"
     borderopacity="1"
     objecttolerance="10"
     gridtolerance="10"
     guidetolerance="10"
     inkscape:pageopacity="0"
     inkscape:pageshadow="2"
     inkscape:window-width="1299"
     inkscape:window-height="631"
     id="namedview28"
     showgrid="false"
     fit-margin-top="0"
     fit-margin-left="0"
     fit-margin-right="0"
     fit-margin-bottom="0"
     inkscape:zoom="0.14171429"
     inkscape:cx="1044.2591"
     inkscape:cy="325.89296"
     inkscape:window-x="0"
     inkscape:window-y="0"
     inkscape:window-maximized="0"
     inkscape:current-layer="svg2" />
  <path
     d="m 229.6673,1.2617655 c 11.19,-1.87999996 23.31,-1.01999996 34.74,-1.23999996 8.11,-0.2 15.99,1.01999996 24.01,1.94999996 25.08,3.34 49.67,9.9500005 72.83,20.1800005 31.67,14.08 60.38,34.61 83.98,59.98 19.9,21.560004 36.26,46.260004 47.76,73.290004 11.05,25.34 17.11,52.08 19.84,79.52 0.81,10.29 0.31,20.69 0.46,31.01 0.13,8.75 -0.98,17.36 -2.27,26 -3.65,27.29 -11.89,53.78 -24.21,78.39 -14.5,29.12 -34.66,55.06 -58.74,76.88 -12.6,-13.78 -23.94,-28.73 -35.67,-43.25 -11.28,-14.55 -23.84,-28.24 -34.39,-43.33 2.93,-3.43 6.38,-6.34 9.21,-9.87 15.42,-17.86 26.4,-39.47 31.59,-62.5 9.37,-41.08 -0.05,-85.66 -25.6,-119.21 -18.4,-24.36 -44.46,-42.76 -73.7,-51.62 -13.26,-3.95 -27.25,-6.4 -41.1,-6.16 -31.66,-0.81 -63.59,9.74 -88.86,28.77 -33.31,24.75 -55.19,63.94 -57.84,105.45 -1.44,9.98 -0.23,19.51 0.68,29.45 2.25,16.67 7.24,32.94 15.03,47.86 6.16,11.91 14.06,22.73 23.02,32.68 1.37,3.33 4.04,5.34 6.15,8.16 -19.85,23.7 -39.08,47.94 -58.499999,71.99 -3.53,4.45 -6.82,9.02 -10.99,12.93 -38.11,-33.63 -66.15,-78.3 -78.86,-127.59 -0.34,-1.62 -0.53,-3.26 -0.7,-4.9 -0.04,0.95 -0.09,1.9 -0.14,2.85 -0.83,-5.8 -2.47,-11.4 -3.31,-17.18 -1.81,-10.53 -3.16999996,-21.15 -4.04999996,-31.8 -0.07,-9.33 -0.02,-18.67 -0.02,-28 3.07999996,-39.41 13.49999996,-77.81 33.34999996,-112.15 30.46,-53.650004 80.729999,-95.550004 139.099999,-115.590004 18.41,-6.4200005 37.9,-10.4400005 57.2,-12.9500005 z"
     id="path6"
     inkscape:connector-curvature="0"
     style="fill:#01a8f7" />
  <path
     d="m 1049.9373,85.281766 c 17.57,-0.2 35.24,-0.04 52.81,-0.08 0.01,94.920004 0,189.840004 0,284.760004 -17.62,0.03 -35.25,0.04 -52.87,0 0.04,-94.52 -0.08,-190.33 0.06,-284.680004 z"
     id="path8"
     inkscape:connector-curvature="0"
     style="fill:#000000" />
  <path
     d="m 258.4073,111.28177 c 13.85,-0.24 27.84,2.21 41.1,6.16 29.24,8.86 55.3,27.26 73.7,51.62 25.55,33.55 34.97,78.13 25.6,119.21 -5.19,23.03 -16.17,44.64 -31.59,62.5 -2.83,3.53 -6.28,6.44 -9.21,9.87 l -0.51,0.61 c -3.33,-5.28 -7.47,-10.24 -11.41,-15.1 -25.5,-31.47 -50.98,-62.96 -76.39,-94.5 -3.98,-4.67 -7.48,-10.18 -12.26,-14.04 -2.16,2.33 -4.06,4.85 -6.04,7.33 -25.55,32.08 -51.38,63.92 -77.14,95.83 -5.87,7 -11.24,14.57 -17.69,21.05 -2.11,-2.04 -4.13,-4.19 -6.13,-6.33 -8.96,-9.95 -16.86,-20.77 -23.02,-32.68 -7.79,-14.92 -12.78,-31.19 -15.03,-47.86 -0.91,-9.94 -2.12,-19.47 -0.68,-29.45 2.65,-41.51 24.53,-80.7 57.84,-105.45 25.27,-19.03 57.2,-29.58 88.86,-28.77 z"
     id="path10"
     inkscape:connector-curvature="0"
     style="fill:#ffffff" />
  <path
     d="m 954.4073,171.11177 c 16.52,2.7 31.59,12.06 40.7,26.19 9.35,14.27 12.21,30.85 12.57,47.65 0.01,41.63 -0.01,83.3 0.01,124.94 -17.59,0.19 -35.19,0.06 -52.77,0.07 -0.01,-40.67 -0.01,-81.34 0,-122.01 -0.04,-5.09 -0.03,-10.05 -1.33,-15.02 -1.62,-7.58 -6.04,-15.3 -13.05,-19.03 -7.12,-3.89 -15.91,-4.15 -23.75,-2.91 -12.12,1.88 -22.97,9.13 -31.62,17.53 0.08,47.14 0.02,94.3 0.03,141.45 -17.64,-0.03 -35.3,0.12 -52.95,-0.08 0.01,-65.59 -0.01,-131.18 0.01,-196.76 11.06,-0.1 22.13,-0.08 33.19,-0.03 5.28,0.02 9.86,2.64 12,7.55 1.81,4.92 2.55,10.25 3.93,15.31 8.15,-7.65 16.69,-14.44 26.94,-19.08 14.32,-6.63 30.59,-8.09 46.09,-5.77 z"
     id="path12"
     inkscape:connector-curvature="0"
     style="fill:#000000" />
  <path
     d="m 1233.2198,170.07989 c -5.9859,-0.0117 -11.9672,0.44219 -17.8328,1.29219 -21.64,3.18 -42.2891,14.35 -56.3891,31.15 -13.35,15.81 -20.4006,35.89906 -21.9906,56.38906 -0.89,17.02 0.59,34.88063 6.3,51.04063 6.1,17.54 16.66,33.29968 31.75,44.32968 14.73,11.04 33.0797,16.86063 51.3297,18.19063 18.04,0.86 36.73,-0.54094 53.8,-6.81094 14.62,-5.27 27.9203,-13.84906 38.0703,-25.68906 -5.05,-6.23 -10.0303,-12.52 -15.0703,-18.75 -2.16,-2.8 -5.1697,-4.72969 -8.7797,-4.82969 -5.13,-0.43 -9.2203,1.62875 -13.5703,3.96875 -9.09,4.99 -19.2397,9.98 -29.5297,11.75 -9.59,1.19 -20.1403,1.23031 -29.3703,-1.92969 -10.89,-3.5 -20.1197,-11.41906 -25.1797,-21.68906 -4.39,-8.92 -6.64,-19 -7.25,-28.9 39.31,0 78.6197,0.01 117.9297,0 3.21,-0.07 6.5506,-0.14062 8.8906,-2.69062 2.6,-3.13 3.0097,-8.00969 3.3297,-11.92969 0.64,-19.08 -2.2206,-37.80031 -11.6406,-54.62031 -8.04,-14.6 -21.0691,-26.17938 -36.3891,-32.70938 -12.045,-5.25938 -25.2388,-7.5369 -38.4078,-7.5625 z m 0.1125,37.0625 c 2.0155,0.002 4.0444,0.0916 6.0844,0.23906 9.54,0.79 18.6503,5.43094 24.5703,13.01094 6.15,7.77 8.52,18.16875 8.35,27.91875 -27.43,-0.02 -54.8591,0.0303 -82.2891,-0.0297 1.51,-7.77 3.4991,-15.21031 7.5891,-22.07031 4.14,-7.11 10.2503,-12.92938 17.9703,-15.95938 5.7525,-2.34 11.6786,-3.1164 17.725,-3.10937 z"
     id="path14"
     inkscape:connector-curvature="0" />
  <path
     d="m 1433.2173,170.71177 c 19.85,2.19 39.39,10.2 53.89,24.14 -3.98,5.99 -7.78,12.1 -11.73,18.1 -1.83,2.64 -3.53,5.19 -6.78,6.15 -4.43,1.17 -8.64,0.1 -12.69,-1.78 -8.3,-3.83 -16.18,-7.48 -25.31,-8.97 -7.91,-1.25 -16.47,-1.09 -24,1.86 -5.48,2.22 -10.02,6.35 -11.5,12.23 -0.77,4.47 -0.79,8.91 2.17,12.62 4.31,5.4 11.04,8.35 17.33,10.76 13.58,5.09 27.29,8.33 40.57,14.38 7.57,3.29 14.6,7.68 20.55,13.43 6.23,6.48 10.71,14.57 12.07,23.51 2.21,13.17 -0.11,28.06 -6.27,39.93 -6.1,11.88 -16.28,21 -28.29,26.68 -15.18,7.37 -32.1,9.61 -48.8,9.1 -14.3,-0.32 -28.55,-3.55 -41.66,-9.23 -8.83,-3.83 -17.21,-8.38 -24.46,-14.78 2.91,-5.04 6.13,-9.9 9.15,-14.88 2.37,-3.76 4.58,-7.97 8.57,-10.27 5.39,-2.71 11.78,-2.4 16.95,0.69 8.32,4.9 17.04,9.93 26.68,11.69 5.78,0.95 11.93,1.05 17.76,0.43 7.2,-0.96 14.39,-3.54 18.65,-9.78 3.05,-4.33 3.71,-9.66 2.78,-14.79 -1.19,-5.52 -6.71,-9.48 -11.37,-12.07 -11.3,-5.93 -24.82,-8.51 -36.9,-13.05 -9.51,-3.54 -19.94,-7.66 -27.77,-14.24 -8.95,-7.19 -15.27,-17.73 -17.31,-29.05 -2.26,-12.83 -1.14,-26.05 4.66,-37.83 6.36,-12.98 17.61,-22.44 30.74,-28.13 16.63,-7.37 34.42,-8.39 52.32,-6.85 z"
     id="path16"
     inkscape:connector-curvature="0"
     style="fill:#000000" />
  <path
     d="m 1611.4373,171.99177 c 16.75,3.19 33.24,10.94 45.55,22.87 -3.94,5.95 -7.73,12 -11.64,17.97 -1.58,2.31 -3.38,4.95 -6.09,5.99 -4.52,1.62 -9.15,0.49 -13.36,-1.46 -7.58,-3.47 -15.23,-7.08 -23.49,-8.64 -8.38,-1.67 -17.73,-1.67 -25.8,1.42 -5.56,2.24 -10.48,6.69 -11.69,12.76 -0.59,4.02 -0.59,8.21 1.86,11.65 2.89,4.05 7.68,6.92 12.12,8.96 12.16,5.34 25.36,8.47 37.77,13.22 8.62,3.29 17.57,7.28 24.72,13.22 7.41,5.67 13.05,14.17 15.46,23.18 2.24,9.22 1.93,18.54 0.25,27.82 -2.92,14.56 -11.15,27.79 -23.27,36.44 -13.78,9.95 -31.58,14.74 -48.42,15.3 -9.45,0.64 -19.1,0.06 -28.42,-1.64 -17.45,-3.42 -35.11,-10.6 -48.77,-22.15 3.11,-5.53 6.65,-10.8 9.93,-16.23 2.18,-3.51 4.27,-7.05 8.02,-9.11 3.39,-1.63 7.58,-2.19 11.26,-1.32 3.21,0.62 5.96,2.47 8.76,4.06 6.99,4.12 14.8,8.09 22.8,9.68 5.71,1.02 11.64,1.1 17.41,0.63 6.96,-0.78 14.38,-3.11 18.8,-8.88 3.66,-4.58 4.79,-10.59 3.44,-16.25 -1.46,-5.06 -5.6,-8.18 -9.88,-10.83 -7.16,-4.16 -15.73,-6.63 -23.6,-9.07 -11.62,-3.46 -22.79,-7.27 -33.53,-12.97 -8.83,-4.85 -16.37,-11.79 -21.15,-20.73 -5.43,-9.83 -6.72,-20.86 -5.93,-31.93 1.04,-14.97 8.51,-29.25 20.19,-38.67 12.46,-10.22 28.76,-15.48 44.66,-16.79 10.6,-0.71 21.59,-0.56 32.04,1.5 z"
     id="path18"
     inkscape:connector-curvature="0"
     style="fill:#000000" />
  <path
     d="m 613.1773,173.12177 c 17.65,-0.12 35.31,-0.02 52.96,-0.05 -0.01,41.29 0.01,82.59 -0.01,123.88 0.07,5.28 0.55,10.67 1.96,15.77 2.09,6.65 5.94,12.97 12.23,16.37 7.13,3.93 14.98,4.02 22.88,3.12 12.38,-1.81 23.69,-9.29 32.57,-17.78 -0.13,-47.11 -0.01,-94.24 -0.06,-141.36 17.64,0.04 35.29,-0.1 52.94,0.08 -0.02,65.57 -0.01,131.15 -0.01,196.72 -9.74,0.24 -19.49,0.04 -29.23,0.12 -3.71,-0.06 -7.7,0.16 -10.99,-1.85 -2.81,-1.58 -4.52,-4.36 -5.44,-7.38 -1.31,-4.53 -2.25,-9.17 -3.51,-13.71 -9.93,9.54 -20.73,17.59 -33.95,21.96 -13.1,4.35 -27.55,4.95 -41.08,2.49 -15.76,-3.08 -30.02,-12.3 -38.65,-25.92 -9.32,-14.45 -12.24,-30.68 -12.59,-47.63 -0.01,-41.61 0.02,-83.23 -0.02,-124.83 z"
     id="path20"
     inkscape:connector-curvature="0"
     style="fill:#000000" />
  <path
     d="m 257.4373,237.61177 c 4.78,3.86 8.28,9.37 12.26,14.04 25.41,31.54 50.89,63.03 76.39,94.5 3.94,4.86 8.08,9.82 11.41,15.1 -2.69,3.38 -6.01,5.79 -9.36,8.45 -22.72,17.93 -50.86,29.01 -79.73,31.23 -14.12,0.93 -28.27,0.35 -42.11,-2.74 -26.02,-5.51 -50.25,-18.29 -69.73,-36.37 6.45,-6.48 11.82,-14.05 17.69,-21.05 25.76,-31.91 51.59,-63.75 77.14,-95.83 1.98,-2.48 3.88,-5 6.04,-7.33 z"
     id="path24"
     inkscape:connector-curvature="0"
     style="fill:#47c2fb" />
  <path
     d="m 150.4373,355.49177 c 2,2.14 4.02,4.29 6.13,6.33 19.48,18.08 43.71,30.86 69.73,36.37 13.84,3.09 27.99,3.67 42.11,2.74 28.87,-2.22 57.01,-13.3 79.73,-31.23 3.35,-2.66 6.67,-5.07 9.36,-8.45 l 0.51,-0.61 c 10.55,15.09 23.11,28.78 34.39,43.33 11.73,14.52 23.07,29.47 35.67,43.25 -38.35,34.89 -87.36,56.43 -138.63,63.14 -15.82,2.59 -31.09,1.57 -47.03,1.76 -56.99,-3.11 -112.69,-25.47 -155.309999,-63.55 4.17,-3.91 7.46,-8.48 10.99,-12.93 19.419999,-24.05 38.649999,-48.29 58.499999,-71.99 -2.11,-2.82 -4.78,-4.83 -6.15,-8.16 z"
     id="path26"
     inkscape:connector-curvature="0"
     style="fill:#0087d3" />
</svg>
