<?xml version="1.0" encoding="UTF-8" standalone="no"?>
<!DOCTYPE svg PUBLIC "-//W3C//DTD SVG 1.1//EN" "http://www.w3.org/Graphics/SVG/1.1/DTD/svg11.dtd">
<svg viewBox="0 0 702 702" height="702.0pt" width="702.0pt" xmlns="http://www.w3.org/2000/svg" version="1.1">
<path d="M 0.00 0.00 L 702.00 0.00 L 702.00 702.00 L 0.00 702.00 L 0.00 0.00 Z" fill="#ffffff" />
<path d="M 335.24 62.28 C 340.48 62.08 345.75 62.25 351.00 62.20 C 358.39 62.30 365.64 61.83 372.99 62.83 C 413.55 66.58 453.07 77.53 488.89 97.11 C 518.30 112.98 544.74 134.09 567.01 158.99 C 594.51 189.57 615.34 226.18 627.54 265.46 C 634.49 288.00 638.59 311.64 640.59 335.12 C 640.91 344.40 640.62 353.71 640.74 363.00 C 640.91 368.67 640.08 374.19 639.46 379.81 C 636.60 403.82 631.88 427.82 623.40 450.52 C 607.27 495.48 579.65 535.82 544.22 567.79 C 532.67 554.96 522.07 541.24 511.19 527.84 C 500.14 513.90 488.91 500.12 477.69 486.32 C 473.33 480.96 469.08 475.51 465.17 469.81 C 492.84 443.34 510.57 406.89 514.32 368.79 C 515.44 359.95 515.00 350.89 514.94 342.00 C 513.15 313.74 504.23 286.04 488.66 262.36 C 471.41 235.79 446.31 214.48 417.35 201.66 C 390.90 189.90 361.50 185.63 332.76 188.76 C 303.33 191.93 274.88 203.33 251.42 221.38 C 227.43 239.68 208.64 264.62 197.81 292.79 C 191.70 308.53 188.22 325.17 187.08 342.00 C 186.95 348.33 186.97 354.67 187.05 361.00 C 188.74 391.78 199.16 421.83 217.12 446.91 C 223.30 455.81 230.60 463.69 238.04 471.52 L 238.59 472.12 C 236.78 474.45 235.02 476.82 233.12 479.08 C 208.27 508.90 184.37 539.51 159.86 569.60 C 121.47 535.59 92.02 491.78 76.03 442.96 C 67.77 418.55 63.73 393.50 61.41 367.90 C 61.25 356.97 61.26 346.01 61.40 335.08 C 64.95 292.10 76.14 250.03 97.21 212.23 C 116.03 177.94 141.96 147.87 172.66 123.68 C 202.53 100.25 237.15 82.67 273.80 72.71 C 293.83 67.28 314.56 63.96 335.24 62.28 Z" fill="#00a8f7" />
<path d="M 417.35 201.66 C 446.31 214.48 471.41 235.79 488.66 262.36 C 504.23 286.04 513.15 313.74 514.94 342.00 C 515.00 350.89 515.44 359.95 514.32 368.79 C 510.57 406.89 492.84 443.34 465.17 469.81 L 464.59 470.37 C 460.97 465.35 457.27 460.40 453.35 455.61 C 421.46 416.16 389.63 376.66 357.87 337.10 C 356.09 334.87 354.15 332.79 351.94 330.96 C 319.32 371.24 286.75 411.81 254.19 452.17 C 248.96 458.75 243.71 465.30 238.04 471.52 C 230.60 463.69 223.30 455.81 217.12 446.91 C 199.16 421.83 188.74 391.78 187.05 361.00 C 186.97 354.67 186.95 348.33 187.08 342.00 C 188.22 325.17 191.70 308.53 197.81 292.79 C 208.64 264.62 227.43 239.68 251.42 221.38 C 274.88 203.33 303.33 191.93 332.76 188.76 C 361.50 185.63 390.90 189.90 417.35 201.66 Z" fill="#ffffff" />
<path d="M 351.94 330.96 C 354.15 332.79 356.09 334.87 357.87 337.10 C 389.63 376.66 421.46 416.16 453.35 455.61 C 457.27 460.40 460.97 465.35 464.59 470.37 C 434.03 500.38 390.78 517.20 348.00 516.00 C 343.59 516.10 339.23 516.03 334.86 515.37 C 304.19 512.42 274.68 500.50 250.28 481.74 C 246.26 478.68 242.54 475.27 238.59 472.12 L 238.04 471.52 C 243.71 465.30 248.96 458.75 254.19 452.17 C 286.75 411.81 319.32 371.24 351.94 330.96 Z" fill="#48c2fa" />
<path d="M 464.59 470.37 L 465.17 469.81 C 469.08 475.51 473.33 480.96 477.69 486.32 C 488.91 500.12 500.14 513.90 511.19 527.84 C 522.07 541.24 532.67 554.96 544.22 567.79 C 496.37 611.62 433.47 636.79 369.01 641.55 C 358.34 641.68 347.67 641.54 337.00 641.62 C 330.00 641.81 322.97 640.26 315.98 639.61 C 258.39 632.65 203.20 608.25 159.86 569.60 C 184.37 539.51 208.27 508.90 233.12 479.08 C 235.02 476.82 236.78 474.45 238.59 472.12 C 242.54 475.27 246.26 478.68 250.28 481.74 C 274.68 500.50 304.19 512.42 334.86 515.37 C 339.23 516.03 343.59 516.10 348.00 516.00 C 390.78 517.20 434.03 500.38 464.59 470.37 Z" fill="#0087d4" /></svg>